<svg width="22" height="17" viewBox="0 0 22 17" fill="none" xmlns="http://www.w3.org/2000/svg">
<g clip-path="url(#clip0)">
<path d="M20.6636 5.08656L11.402 2.24105C10.8973 2.08599 10.3527 2.08599 9.84838 2.24105L0.586369 5.08656C-0.195233 5.32662 -0.195233 6.36023 0.586369 6.60029L2.20104 7.09634C1.84676 7.53429 1.62895 8.06853 1.60737 8.65357C1.28762 8.83685 1.0625 9.16755 1.0625 9.56234C1.0625 9.92027 1.2511 10.2214 1.5227 10.414L0.675021 14.2284C0.60131 14.5601 0.853654 14.8748 1.19332 14.8748H3.05635C3.39635 14.8748 3.64869 14.5601 3.57498 14.2284L2.72731 10.414C2.99891 10.2214 3.1875 9.92027 3.1875 9.56234C3.1875 9.17818 2.97268 8.85677 2.66754 8.67017C2.69278 8.17146 2.94778 7.73052 3.35451 7.45095L9.84805 9.44613C10.1489 9.53843 10.7259 9.65365 11.4016 9.44613L20.6636 6.60062C21.4456 6.36023 21.4456 5.32695 20.6636 5.08656ZM11.7137 10.4618C10.7664 10.7527 9.95928 10.592 9.53594 10.4618L4.72082 8.98261L4.25 12.7498C4.25 13.9236 7.10414 14.8748 10.625 14.8748C14.1459 14.8748 17 13.9236 17 12.7498L16.5292 8.98228L11.7137 10.4618Z" fill="#DBDBE9"/>
</g>
<defs>
<clipPath id="clip0">
<rect width="21.25" height="17" fill="white"/>
</clipPath>
</defs>
</svg>
