<svg width="80" height="80" viewBox="0 0 80 80" fill="none" xmlns="http://www.w3.org/2000/svg">
<path fill-rule="evenodd" clip-rule="evenodd" d="M40.2102 3.0003C27.2234 2.94812 15.1566 9.68634 8.40385 20.7616C1.65111 31.8368 1.1978 45.633 7.209 57.1262L7.9502 58.571C8.55774 59.7079 8.68482 61.0401 8.30316 62.271C7.24546 65.0803 6.36141 67.9517 5.656 70.8691C5.656 72.3491 6.07955 73.1948 7.66784 73.1595C10.481 72.5383 13.2515 71.7379 15.9623 70.7634C17.1298 70.4418 18.3712 70.5162 19.4918 70.9748C20.5154 71.4681 22.5978 72.7367 22.6684 72.7367C36.2687 79.8879 52.8789 77.915 64.4191 67.7777C75.9592 57.6405 80.0336 41.4432 74.6601 27.0652C69.2867 12.6872 55.581 3.11326 40.2102 3.0003Z" stroke="#418B78" stroke-width="5" stroke-linecap="round" stroke-linejoin="round"/>
<path opacity="0.4" d="M22.5623 43.7008C24.6058 43.7008 26.2623 42.0442 26.2623 40.0008C26.2623 37.9573 24.6058 36.3008 22.5623 36.3008C20.5189 36.3008 18.8623 37.9573 18.8623 40.0008C18.8623 42.0442 20.5189 43.7008 22.5623 43.7008Z" fill="#418B78" stroke="#418B78" stroke-width="5" stroke-linecap="round" stroke-linejoin="round"/>
<path opacity="0.4" d="M40.2098 43.7008C42.2532 43.7008 43.9098 42.0442 43.9098 40.0008C43.9098 37.9573 42.2532 36.3008 40.2098 36.3008C38.1663 36.3008 36.5098 37.9573 36.5098 40.0008C36.5098 42.0442 38.1663 43.7008 40.2098 43.7008Z" fill="#418B78" stroke="#418B78" stroke-width="5" stroke-linecap="round" stroke-linejoin="round"/>
<path opacity="0.4" d="M57.8572 43.7008C59.9007 43.7008 61.5572 42.0442 61.5572 40.0008C61.5572 37.9573 59.9007 36.3008 57.8572 36.3008C55.8138 36.3008 54.1572 37.9573 54.1572 40.0008C54.1572 42.0442 55.8138 43.7008 57.8572 43.7008Z" fill="#418B78" stroke="#418B78" stroke-width="5" stroke-linecap="round" stroke-linejoin="round"/>
</svg>
