<svg width="18" height="17" viewBox="0 0 18 17" fill="none" xmlns="http://www.w3.org/2000/svg">
<g clip-path="url(#clip0)">
<path d="M17.5056 6.33516C17.6351 6.23223 17.8276 6.32852 17.8276 6.49121V13.2812C17.8276 14.1611 17.1138 14.875 16.2339 14.875H2.42139C1.5415 14.875 0.827637 14.1611 0.827637 13.2812V6.49453C0.827637 6.32852 1.01689 6.23555 1.14971 6.33848C1.89346 6.91621 2.87959 7.65 6.26631 10.1104C6.96689 10.6217 8.14893 11.6975 9.32764 11.6908C10.513 11.7008 11.7183 10.6018 12.3923 10.1104C15.779 7.65 16.7618 6.91289 17.5056 6.33516ZM9.32764 10.625C10.0979 10.6383 11.2069 9.65547 11.7647 9.25039C16.1708 6.05293 16.5062 5.77402 17.5222 4.97715C17.7147 4.82773 17.8276 4.59531 17.8276 4.34961V3.71875C17.8276 2.83887 17.1138 2.125 16.2339 2.125H2.42139C1.5415 2.125 0.827637 2.83887 0.827637 3.71875V4.34961C0.827637 4.59531 0.940527 4.82441 1.13311 4.97715C2.14912 5.7707 2.48447 6.05293 6.89053 9.25039C7.44834 9.65547 8.55732 10.6383 9.32764 10.625Z" fill="#DBDBE9"/>
</g>
<defs>
<clipPath id="clip0">
<rect width="17" height="17" fill="white" transform="translate(0.827637)"/>
</clipPath>
</defs>
</svg>
