<svg width="8" height="14" viewBox="0 0 8 14" fill="none" xmlns="http://www.w3.org/2000/svg">
<path d="M7.19755 1.82143C7.19755 1.71094 7.14844 1.61272 7.07478 1.53906L6.46094 0.925222C6.38728 0.851562 6.27679 0.802454 6.17857 0.802454C6.08036 0.802454 5.96987 0.851562 5.89621 0.925222L0.175223 6.6462C0.101563 6.71987 0.0524554 6.83036 0.0524554 6.92857C0.0524554 7.02679 0.101563 7.13728 0.175223 7.21094L5.89621 12.9319C5.96987 13.0056 6.08036 13.0547 6.17857 13.0547C6.27679 13.0547 6.38728 13.0056 6.46094 12.9319L7.07478 12.3181C7.14844 12.2444 7.19755 12.1339 7.19755 12.0357C7.19755 11.9375 7.14844 11.827 7.07478 11.7533L2.25 6.92857L7.07478 2.10379C7.14844 2.03013 7.19755 1.91964 7.19755 1.82143Z" fill="#3B3B4F"/>
</svg>
