<svg width="15" height="17" viewBox="0 0 15 17" fill="none" xmlns="http://www.w3.org/2000/svg">
<g clip-path="url(#clip0)">
<path d="M14.875 11.9531V0.796875C14.875 0.355273 14.5197 0 14.0781 0H3.1875C1.42773 0 0 1.42773 0 3.1875V13.8125C0 15.5723 1.42773 17 3.1875 17H14.0781C14.5197 17 14.875 16.6447 14.875 16.2031V15.6719C14.875 15.4229 14.7588 15.1971 14.5795 15.051C14.44 14.5396 14.44 13.082 14.5795 12.5707C14.7588 12.4279 14.875 12.2021 14.875 11.9531ZM4.25 4.44922C4.25 4.33965 4.33965 4.25 4.44922 4.25H11.4883C11.5979 4.25 11.6875 4.33965 11.6875 4.44922V5.11328C11.6875 5.22285 11.5979 5.3125 11.4883 5.3125H4.44922C4.33965 5.3125 4.25 5.22285 4.25 5.11328V4.44922ZM4.25 6.57422C4.25 6.46465 4.33965 6.375 4.44922 6.375H11.4883C11.5979 6.375 11.6875 6.46465 11.6875 6.57422V7.23828C11.6875 7.34785 11.5979 7.4375 11.4883 7.4375H4.44922C4.33965 7.4375 4.25 7.34785 4.25 7.23828V6.57422ZM12.6637 14.875H3.1875C2.5998 14.875 2.125 14.4002 2.125 13.8125C2.125 13.2281 2.60313 12.75 3.1875 12.75H12.6637C12.6006 13.3178 12.6006 14.3072 12.6637 14.875Z" fill="#DBDBE9"/>
</g>
<defs>
<clipPath id="clip0">
<rect width="14.875" height="17" fill="white"/>
</clipPath>
</defs>
</svg>
