<svg width="8" height="14" viewBox="0 0 8 14" fill="none" xmlns="http://www.w3.org/2000/svg">
<path d="M7.80469 6.92857C7.80469 6.83036 7.75558 6.71987 7.68192 6.6462L1.96094 0.925222C1.88728 0.851562 1.77679 0.802454 1.67857 0.802454C1.58036 0.802454 1.46987 0.851562 1.39621 0.925222L0.782366 1.53906C0.708705 1.61272 0.659598 1.72321 0.659598 1.82143C0.659598 1.91964 0.708705 2.03013 0.782366 2.10379L5.60714 6.92857L0.782366 11.7533C0.708705 11.827 0.659598 11.9375 0.659598 12.0357C0.659598 12.1462 0.708705 12.2444 0.782366 12.3181L1.39621 12.9319C1.46987 13.0056 1.58036 13.0547 1.67857 13.0547C1.77679 13.0547 1.88728 13.0056 1.96094 12.9319L7.68192 7.21094C7.75558 7.13728 7.80469 7.02679 7.80469 6.92857Z" fill="#3B3B4F"/>
</svg>
