<svg width="38" height="42" viewBox="0 0 38 38" fill="none" xmlns="http://www.w3.org/2000/svg">
<path fill-rule="evenodd" clip-rule="evenodd" d="M18.6989 1.00002C12.5218 0.975204 6.78225 4.18022 3.57033 9.44812C0.358403 14.716 0.142789 21.2781 3.002 26.7449L3.35455 27.4321C3.64352 27.9728 3.70397 28.6065 3.52243 29.1919C3.01934 30.5282 2.59884 31.894 2.26332 33.2816C2.26332 33.9856 2.46478 34.3878 3.22024 34.3711C4.55833 34.0756 5.87609 33.6949 7.16546 33.2313C7.72079 33.0784 8.31125 33.1138 8.84428 33.3319C9.33114 33.5665 10.3216 34.1699 10.3552 34.1699C16.8241 37.5714 24.7248 36.633 30.2138 31.8112C35.7028 26.9894 37.6408 19.2853 35.0849 12.4464C32.5291 5.60758 26.01 1.05375 18.6989 1.00002Z" stroke="#418B78" stroke-width="2" stroke-linecap="round" stroke-linejoin="round"/>
<path opacity="0.4" d="M10.3048 20.3589C11.2768 20.3589 12.0647 19.571 12.0647 18.599C12.0647 17.627 11.2768 16.8391 10.3048 16.8391C9.33285 16.8391 8.54492 17.627 8.54492 18.599C8.54492 19.571 9.33285 20.3589 10.3048 20.3589Z" fill="#418B78" stroke="#418B78" stroke-width="2" stroke-linecap="round" stroke-linejoin="round"/>
<path opacity="0.4" d="M18.6989 20.3589C19.6708 20.3589 20.4588 19.571 20.4588 18.599C20.4588 17.627 19.6708 16.8391 18.6989 16.8391C17.7269 16.8391 16.939 17.627 16.939 18.599C16.939 19.571 17.7269 20.3589 18.6989 20.3589Z" fill="#418B78" stroke="#418B78" stroke-width="2" stroke-linecap="round" stroke-linejoin="round"/>
<path opacity="0.4" d="M27.0929 20.3589C28.0649 20.3589 28.8528 19.571 28.8528 18.599C28.8528 17.627 28.0649 16.8391 27.0929 16.8391C26.1209 16.8391 25.333 17.627 25.333 18.599C25.333 19.571 26.1209 20.3589 27.0929 20.3589Z" fill="#418B78" stroke="#418B78" stroke-width="2" stroke-linecap="round" stroke-linejoin="round"/>
</svg>
