<svg width="40" height="42" viewBox="0 0 40 41" fill="none" xmlns="http://www.w3.org/2000/svg">
<path opacity="0.4" fill-rule="evenodd" clip-rule="evenodd" d="M38.5351 14.9508C37.2569 7.08396 30.575 1.23148 22.6083 1.0011C22.2295 0.986248 21.8604 1.12262 21.5823 1.38017C21.3041 1.63771 21.1398 1.99529 21.1255 2.37409V2.50224L22.0225 15.921C22.0814 16.8243 22.8579 17.511 23.7616 17.4588L37.217 16.5617C37.5962 16.5337 37.9485 16.3556 38.1959 16.067C38.4433 15.7783 38.5654 15.4029 38.5351 15.024V14.9508Z" stroke="#418B78" stroke-width="2" stroke-linecap="round" stroke-linejoin="round"/>
<path d="M13.2903 8.98279C14.1462 8.7848 15.0221 9.22275 15.3773 10.0263C15.4703 10.2153 15.5262 10.4203 15.542 10.6304C15.7251 13.2299 16.1095 18.9233 16.3292 21.9988C16.3667 22.5528 16.6235 23.069 17.0426 23.4332C17.4618 23.7974 18.0088 23.9795 18.5626 23.9393L29.8578 23.2437C30.3621 23.2133 30.8565 23.3928 31.2239 23.7394C31.5914 24.0861 31.7992 24.5692 31.7983 25.0743C31.3406 31.8951 26.4401 37.5971 19.7657 39.0752C13.0913 40.5532 6.24166 37.4531 2.94707 31.4633C1.96357 29.7394 1.34074 27.8335 1.11641 25.8615C1.02051 25.2563 0.98372 24.6432 1.00657 24.0308C1.026 16.7468 6.14159 10.4707 13.272 8.98279" stroke="#418B78" stroke-width="2" stroke-linecap="round" stroke-linejoin="round"/>
</svg>
